<svg xmlns="http://www.w3.org/2000/svg" viewBox="0 0 2488 1696">
<path fill="#E8EDF8" d="M 332.487 226.426 C 349.758 225.012 376.385 226.464 393.764 227.879 C 503.013 236.772 612.827 287.722 682.145 374.032 C 701.403 398.011 713.758 432.324 725.456 460.917 L 755.096 533.169 L 941.038 984.143 L 986.145 1094.08 C 999.512 1126.6 1010.22 1156.92 1029.83 1186.29 C 1054.27 1223.6 1088.87 1253.15 1129.55 1271.45 C 1187.31 1297.2 1252.99 1298.62 1311.81 1275.4 C 1341.69 1263.7 1371.76 1247.06 1402.82 1235.1 C 1480.26 1303.8 1595.01 1336.17 1697.18 1335.41 C 1702.69 1335.37 1717.44 1333.7 1719.47 1339.33 C 1712.07 1347.29 1629.82 1387.18 1614.59 1394.99 L 1372.45 1519 L 1227.92 1592.78 C 1198.17 1607.98 1163.61 1627 1133.68 1640.45 C 1076.68 1665.75 1015.65 1680.75 953.418 1684.76 C 805.96 1695.73 660.225 1647.37 548.569 1550.44 C 501.703 1509.31 459.645 1459.83 431.744 1403.69 C 419.926 1379.91 410.708 1352.23 402.061 1327.13 L 374.559 1247.08 L 280.047 970.223 L 160.031 619.275 L 124.423 515.892 C 113.044 482.914 97.0662 444.783 94.3393 410.178 C 91.3768 372.583 107.991 333.737 132.806 305.837 C 183.181 249.197 259.649 230.847 332.487 226.426 z M 1354.05 1521.08 L 1703.22 1341.99 C 1597.78 1343.36 1482.29 1312.04 1401.24 1242.46 C 1373.31 1254.41 1339.03 1272.08 1312.01 1282.18 C 1255.38 1303.67 1192.8 1303.36 1136.39 1281.32 C 1074.73 1256.63 1026.28 1207.1 1000.77 1146.15 C 976.514 1088.2 952.814 1029.62 928.894 971.502 L 776.027 600.428 L 726.455 480.409 C 714.828 452.193 697.862 404.623 679.675 381.216 C 603.564 283.26 466.505 227.502 343.615 232.46 C 271.247 234.969 193.051 251.686 141.325 306.315 C 104.19 345.533 91.2384 396.018 107.941 447.535 C 115.159 469.797 122.904 491.906 130.524 514.068 L 171.986 634.678 L 298.867 1005.57 L 384.115 1255.45 C 425.954 1377.16 442.028 1443.75 540.958 1534.92 C 648.346 1634.01 790.906 1686.04 936.879 1679.41 C 1005.19 1676.9 1072.37 1661.15 1134.68 1633.03 C 1161.52 1620.79 1193.35 1603.28 1220.06 1589.55 L 1354.05 1521.08 z"/>
<path fill="#E8EDF8" d="M 1121.57 224.408 C 1215.25 219.015 1301.12 266.386 1359.61 337.885 C 1377.38 359.616 1391.34 393.697 1403.93 419.616 L 1447.9 509.16 L 1592.49 802.779 C 1614.64 847.66 1637.02 894.757 1659.4 939.012 C 1690.13 999.76 1765.01 1064.55 1837.1 1052.92 C 1871.34 1048.8 1904.59 1016.87 1940.25 1030.87 C 1994.37 1052.13 2035.49 1109.17 2016.31 1167.56 C 2012.5 1179.54 2005.57 1190.3 1996.23 1198.72 C 1982.01 1211.55 1959.65 1220.05 1942.6 1229.34 C 1923.14 1239.94 1903.57 1250.2 1883.73 1260.07 C 1870.02 1266.75 1854.27 1276.03 1840.89 1282.15 C 1815.69 1293.65 1778.02 1302.05 1750.36 1304.61 C 1646.57 1314.24 1517.23 1282.64 1435.64 1216.89 C 1393.39 1182.84 1358.74 1136.96 1332.67 1090.08 C 1312.39 1053.6 1294.58 1010.96 1277.43 972.783 L 1193.52 786.381 L 1080.06 533.852 C 1059.93 488.97 1038.89 443.884 1020.18 398.521 C 1002.06 354.583 995.926 307.823 1029.26 269.057 C 1054.88 239.259 1083.36 228.146 1121.57 224.408 z M 1881.52 1253.99 C 1899.78 1245.21 1918.66 1235.23 1936.44 1225.53 C 1964.66 1210.13 1999.36 1200.38 2009.94 1166.5 C 2017.56 1142.13 2015.41 1117.83 2004.18 1095.1 C 1993.83 1072.48 1961.28 1045.11 1938.68 1036.92 C 1905.4 1024.85 1875.21 1053.03 1838.08 1059.08 C 1763.54 1071.25 1686.14 1005.68 1654.25 943.035 C 1631.59 898.506 1608.59 849.575 1586.2 804.14 L 1442.81 513.296 L 1398.34 422.663 C 1385.74 396.735 1371.77 363.462 1354.22 341.527 C 1316.01 293.946 1264.57 258.742 1206.38 240.354 C 1180.72 232.533 1153.91 229.176 1127.11 230.431 C 1090.31 232.992 1061.78 242.693 1036.41 270.759 C 1002.06 308.777 1008.8 353.521 1026.68 397.219 C 1045.46 443.121 1066.78 488.436 1087.08 533.777 L 1199.42 784.279 L 1286.34 976.853 C 1302.02 1011.49 1317.33 1049.12 1335.48 1082.12 C 1361.02 1128.15 1390.59 1169.31 1430.43 1204.15 C 1486.05 1252.78 1552.9 1276.87 1624.53 1290.92 C 1695.03 1304.74 1769.12 1304.59 1836.72 1277.2 C 1851.32 1271.29 1867.06 1261.09 1881.52 1253.99 z"/>
<path fill="#3E7BFA" d="M 1742.66 290.458 C 1800.67 286.977 1866.41 322.35 1904.21 364.876 C 1919.72 382.332 1932.87 409.566 1943.93 430.321 L 1978.63 495.105 L 2081.94 686.728 C 2102.72 725.372 2122.98 763.886 2144.57 802.271 C 2172.37 851.69 2225.61 895.733 2285.48 880.797 C 2310.32 873.777 2327.48 857.309 2354.94 865.159 C 2393.55 876.195 2424.96 922.749 2413.22 962.728 C 2410.67 971.608 2405.74 979.623 2398.96 985.909 C 2389.46 994.78 2323.65 1029.56 2308.45 1038 C 2269.4 1060.59 2245.01 1068.98 2199.52 1071.64 C 2116.49 1076.49 2030.67 1056.29 1967.44 999.97 C 1938.91 974.559 1917.33 942.788 1897.95 910.107 C 1884.57 887.534 1874.22 862.503 1862.58 838.792 L 1794.4 701.13 L 1700.25 512.454 C 1684.88 481.621 1668.6 450.779 1654.08 419.66 C 1639.45 388.299 1640.69 347.365 1665.21 321.152 C 1686.83 298.029 1712.1 291.965 1742.66 290.458 z M 2310.33 1029.73 C 2325.49 1021.14 2385.57 989.745 2395.01 980.854 C 2400.83 975.381 2405.03 968.397 2407.11 960.682 C 2417.44 923.757 2388.27 880.819 2352.52 870.997 C 2327.52 864.13 2308.85 881.613 2285.81 887.289 C 2224.33 901.623 2169.32 858.294 2140.42 807.528 C 2119.31 770.451 2100.11 733.583 2080.03 696.358 L 1969.81 492.236 L 1936.01 429.049 C 1925.93 410.192 1912.82 383.84 1898.46 368.148 C 1870.1 337.133 1831.04 312.69 1790.13 302.434 C 1769.96 297.377 1754.41 296.21 1734.11 297.4 C 1664.43 303.211 1632.46 358.744 1662.14 421.669 C 1678.76 456.899 1696.96 491.621 1714.42 526.447 L 1807.65 713.574 L 1869.51 838.507 C 1882.07 864.104 1893.45 887.751 1906.75 912.46 C 1969.12 1028.27 2085.17 1076.91 2213.32 1064.23 C 2255.06 1060.1 2273.24 1050.75 2310.33 1029.73 z"/>
<path fill="#3E7BFA" d="M 1585.05 20.444 C 1659.38 17.149 1770.07 80.5945 1778.44 159.956 C 1780.49 177.823 1775.31 195.769 1764.05 209.79 C 1748.28 229.214 1724.74 235.674 1700.91 238.003 C 1621.16 241.768 1517.05 184.096 1505.13 97.2393 C 1500.66 64.6243 1523.8 35.4637 1553.84 26.3139 C 1564.69 23.0079 1573.57 21.6143 1585.05 20.444 z M 1704.25 231.081 C 1743.73 227.756 1776.34 202.126 1771.85 159.467 C 1768.21 124.914 1741.48 94.7278 1715.5 73.8992 C 1682.85 47.5919 1623.11 21.1541 1580.83 27.3855 C 1540.02 31.9632 1507.23 53.6385 1511.98 99.4438 C 1515.67 135.063 1542.15 165.307 1569.02 186.68 C 1607.14 216.795 1655.21 235.388 1704.25 231.081 z"/>
</svg>
