<svg version="1.1" id="Layer_1" xmlns="http://www.w3.org/2000/svg" xmlns:xlink="http://www.w3.org/1999/xlink" x="0px" y="0px"
	 width="100%" viewBox="0 0 2488 1696" enable-background="new 0 0 2488 1696" xml:space="preserve">
<path fill="#FFFFFF" opacity="1.000000" stroke="none" 
	d="
M1556.000000,1698.000000 
	C1037.395020,1698.000000 519.790161,1698.000000 2.092612,1698.000000 
	C2.092612,1132.795898 2.092612,567.591675 2.092612,2.193753 
	C831.105164,2.193753 1660.210449,2.193753 2489.657715,2.193753 
	C2489.657715,567.333191 2489.657715,1132.666504 2489.657715,1698.000000 
	C2178.924561,1698.000000 1867.962280,1698.000000 1556.000000,1698.000000 
M1848.479492,806.594299 
	C1860.246338,830.860046 1872.332397,854.977295 1883.700195,879.428528 
	C1898.242188,910.707520 1916.496338,939.652893 1937.440430,966.932373 
	C1974.049194,1014.614746 2022.255981,1045.263184 2079.611328,1061.675049 
	C2119.586914,1073.113770 2160.463379,1076.958008 2202.073730,1074.439087 
	C2236.780762,1072.338013 2269.768799,1065.400391 2300.278564,1047.744995 
	C2330.247314,1030.402588 2360.841064,1014.140076 2391.132080,997.352905 
	C2412.127686,985.717285 2420.589355,966.948792 2419.277588,943.976807 
	C2417.835938,918.728455 2406.149414,898.106140 2386.551270,882.272034 
	C2372.711182,871.090027 2357.126465,863.489868 2338.748535,865.929749 
	C2330.660645,867.003662 2322.558105,869.596130 2315.014648,872.799622 
	C2299.627930,879.333923 2284.370850,886.093811 2267.259766,885.917297 
	C2230.629639,885.539429 2201.562012,868.737671 2176.800293,843.245361 
	C2163.724365,829.783630 2153.422607,814.195068 2144.514160,797.733887 
	C2101.877441,718.949890 2059.250488,640.160522 2016.769287,561.292603 
	C1988.817505,509.398956 1961.168457,457.342407 1933.278320,405.415527 
	C1924.753052,389.542908 1915.505249,374.135651 1902.588745,361.270081 
	C1864.325317,323.157471 1819.419434,298.327362 1764.978638,293.024963 
	C1740.421387,290.633148 1716.142578,292.710358 1693.895142,304.229858 
	C1664.622559,319.387024 1648.757446,343.535004 1647.805298,377.061188 
	C1647.228760,397.360474 1653.414673,415.762482 1662.294434,433.508148 
	C1677.636963,464.169586 1693.205078,494.718170 1708.538574,525.384155 
	C1723.874634,556.055237 1738.974731,586.844299 1754.297241,617.522278 
	C1768.428589,645.815735 1782.807251,673.985840 1796.914917,702.291077 
	C1813.994507,736.558594 1830.903931,770.910950 1848.479492,806.594299 
M1774.876831,201.653152 
	C1783.603149,185.589859 1784.290771,168.610458 1780.270020,151.237411 
	C1774.854736,127.838951 1762.385132,108.285278 1745.801880,91.409737 
	C1706.831177,51.752487 1659.849121,27.857908 1604.263550,22.668142 
	C1582.108398,20.599630 1560.395020,24.232685 1540.791626,35.936844 
	C1520.754761,47.899868 1509.905762,65.594429 1508.206787,88.902664 
	C1506.825195,107.857140 1512.435181,125.101349 1521.359741,141.401428 
	C1533.059570,162.770294 1549.328003,180.285843 1568.551392,195.030457 
	C1610.385498,227.117996 1656.889893,245.200485 1710.430542,240.146072 
	C1737.119507,237.626541 1759.987793,227.467133 1774.876831,201.653152 
z"/>
<path fill="#3F7BFA" opacity="1.000000" stroke="none" 
	d="
M1848.183105,805.910461 
	C1830.903931,770.910950 1813.994507,736.558594 1796.914917,702.291077 
	C1782.807251,673.985840 1768.428589,645.815735 1754.297241,617.522278 
	C1738.974731,586.844299 1723.874634,556.055237 1708.538574,525.384155 
	C1693.205078,494.718170 1677.636963,464.169586 1662.294434,433.508148 
	C1653.414673,415.762482 1647.228760,397.360474 1647.805298,377.061188 
	C1648.757446,343.535004 1664.622559,319.387024 1693.895142,304.229858 
	C1716.142578,292.710358 1740.421387,290.633148 1764.978638,293.024963 
	C1819.419434,298.327362 1864.325317,323.157471 1902.588745,361.270081 
	C1915.505249,374.135651 1924.753052,389.542908 1933.278320,405.415527 
	C1961.168457,457.342407 1988.817505,509.398956 2016.769287,561.292603 
	C2059.250488,640.160522 2101.877441,718.949890 2144.514160,797.733887 
	C2153.422607,814.195068 2163.724365,829.783630 2176.800293,843.245361 
	C2201.562012,868.737671 2230.629639,885.539429 2267.259766,885.917297 
	C2284.370850,886.093811 2299.627930,879.333923 2315.014648,872.799622 
	C2322.558105,869.596130 2330.660645,867.003662 2338.748535,865.929749 
	C2357.126465,863.489868 2372.711182,871.090027 2386.551270,882.272034 
	C2406.149414,898.106140 2417.835938,918.728455 2419.277588,943.976807 
	C2420.589355,966.948792 2412.127686,985.717285 2391.132080,997.352905 
	C2360.841064,1014.140076 2330.247314,1030.402588 2300.278564,1047.744995 
	C2269.768799,1065.400391 2236.780762,1072.338013 2202.073730,1074.439087 
	C2160.463379,1076.958008 2119.586914,1073.113770 2079.611328,1061.675049 
	C2022.255981,1045.263184 1974.049194,1014.614746 1937.440430,966.932373 
	C1916.496338,939.652893 1898.242188,910.707520 1883.700195,879.428528 
	C1872.332397,854.977295 1860.246338,830.860046 1848.183105,805.910461 
z"/>
<path fill="#3F7CFA" opacity="1.000000" stroke="none" 
	d="
M1774.525757,202.314407 
	C1759.987793,227.467133 1737.119507,237.626541 1710.430542,240.146072 
	C1656.889893,245.200485 1610.385498,227.117996 1568.551392,195.030457 
	C1549.328003,180.285843 1533.059570,162.770294 1521.359741,141.401428 
	C1512.435181,125.101349 1506.825195,107.857140 1508.206787,88.902664 
	C1509.905762,65.594429 1520.754761,47.899868 1540.791626,35.936844 
	C1560.395020,24.232685 1582.108398,20.599630 1604.263550,22.668142 
	C1659.849121,27.857908 1706.831177,51.752487 1745.801880,91.409737 
	C1762.385132,108.285278 1774.854736,127.838951 1780.270020,151.237411 
	C1784.290771,168.610458 1783.603149,185.589859 1774.525757,202.314407 
z"/>
</svg>