<svg xmlns="http://www.w3.org/2000/svg" viewBox="0 0 2488 1696">
<defs>
  <linearGradient id="gw" x1="0" y1="0" x2="2488" y2="0" gradientUnits="userSpaceOnUse">
    <stop offset="0%"   stop-color="#E8EDF8"/>
    <stop offset="60%"  stop-color="#E8EDF8"/>
    <stop offset="100%" stop-color="#9BBCFA"/>
  </linearGradient>
  <linearGradient id="gi" x1="0" y1="0" x2="2488" y2="0" gradientUnits="userSpaceOnUse">
    <stop offset="0%"   stop-color="#3E7BFA"/>
    <stop offset="100%" stop-color="#0D52B4"/>
  </linearGradient>
</defs>
<path fill="url(#gw)" d="M 332.487 226.426 C 349.758 225.012 376.385 226.464 393.764 227.879 C 503.013 236.772 612.827 287.722 682.145 374.032 C 701.403 398.011 713.758 432.324 725.456 460.917 L 755.096 533.169 L 941.038 984.143 L 986.145 1094.08 C 999.512 1126.6 1010.22 1156.92 1029.83 1186.29 C 1054.27 1223.6 1088.87 1253.15 1129.55 1271.45 C 1187.31 1297.2 1252.99 1298.62 1311.81 1275.4 C 1341.69 1263.7 1371.76 1247.06 1402.82 1235.1 C 1480.26 1303.8 1595.01 1336.17 1697.18 1335.41 C 1702.69 1335.37 1717.44 1333.7 1719.47 1339.33 C 1712.07 1347.29 1629.82 1387.18 1614.59 1394.99 L 1372.45 1519 L 1227.92 1592.78 C 1198.17 1607.98 1163.61 1627 1133.68 1640.45 C 1076.68 1665.75 1015.65 1680.75 953.418 1684.76 C 805.96 1695.73 660.225 1647.37 548.569 1550.44 C 501.703 1509.31 459.645 1459.83 431.744 1403.69 C 419.926 1379.91 410.708 1352.23 402.061 1327.13 L 374.559 1247.08 L 280.047 970.223 L 160.031 619.275 L 124.423 515.892 C 113.044 482.914 97.0662 444.783 94.3393 410.178 C 91.3768 372.583 107.991 333.737 132.806 305.837 C 183.181 249.197 259.649 230.847 332.487 226.426 z"/>
<path fill="url(#gw)" d="M 1121.57 224.408 C 1215.25 219.015 1301.12 266.386 1359.61 337.885 C 1377.38 359.616 1391.34 393.697 1403.93 419.616 L 1447.9 509.16 L 1592.49 802.779 C 1614.64 847.66 1637.02 894.757 1659.4 939.012 C 1690.13 999.76 1765.01 1064.55 1837.1 1052.92 C 1871.34 1048.8 1904.59 1016.87 1940.25 1030.87 C 1994.37 1052.13 2035.49 1109.17 2016.31 1167.56 C 2012.5 1179.54 2005.57 1190.3 1996.23 1198.72 C 1982.01 1211.55 1959.65 1220.05 1942.6 1229.34 C 1923.14 1239.94 1903.57 1250.2 1883.73 1260.07 C 1870.02 1266.75 1854.27 1276.03 1840.89 1282.15 C 1815.69 1293.65 1778.02 1302.05 1750.36 1304.61 C 1646.57 1314.24 1517.23 1282.64 1435.64 1216.89 C 1393.39 1182.84 1358.74 1136.96 1332.67 1090.08 C 1312.39 1053.6 1294.58 1010.96 1277.43 972.783 L 1193.52 786.381 L 1080.06 533.852 C 1059.93 488.97 1038.89 443.884 1020.18 398.521 C 1002.06 354.583 995.926 307.823 1029.26 269.057 C 1054.88 239.259 1083.36 228.146 1121.57 224.408 z"/>
<path fill="url(#gi)" d="M1848.183105,805.910461
C1830.903931,770.910950 1813.994507,736.558594 1796.914917,702.291077
C1782.807251,673.985840 1768.428589,645.815735 1754.297241,617.522278
C1738.974731,586.844299 1723.874634,556.055237 1708.538574,525.384155
C1693.205078,494.718170 1677.636963,464.169586 1662.294434,433.508148
C1653.414673,415.762482 1647.228760,397.360474 1647.805298,377.061188
C1648.757446,343.535004 1664.622559,319.387024 1693.895142,304.229858
C1716.142578,292.710358 1740.421387,290.633148 1764.978638,293.024963
C1819.419434,298.327362 1864.325317,323.157471 1902.588745,361.270081
C1915.505249,374.135651 1924.753052,389.542908 1933.278320,405.415527
C1961.168457,457.342407 1988.817505,509.398956 2016.769287,561.292603
C2059.250488,640.160522 2101.877441,718.949890 2144.514160,797.733887
C2153.422607,814.195068 2163.724365,829.783630 2176.800293,843.245361
C2201.562012,868.737671 2230.629639,885.539429 2267.259766,885.917297
C2284.370850,886.093811 2299.627930,879.333923 2315.014648,872.799622
C2322.558105,869.596130 2330.660645,867.003662 2338.748535,865.929749
C2357.126465,863.489868 2372.711182,871.090027 2386.551270,882.272034
C2406.149414,898.106140 2417.835938,918.728455 2419.277588,943.976807
C2420.589355,966.948792 2412.127686,985.717285 2391.132080,997.352905
C2360.841064,1014.140076 2330.247314,1030.402588 2300.278564,1047.744995
C2269.768799,1065.400391 2236.780762,1072.338013 2202.073730,1074.439087
C2160.463379,1076.958008 2119.586914,1073.113770 2079.611328,1061.675049
C2022.255981,1045.263184 1974.049194,1014.614746 1937.440430,966.932373
C1916.496338,939.652893 1898.242188,910.707520 1883.700195,879.428528
C1872.332397,854.977295 1860.246338,830.860046 1848.183105,805.910461
z"/>
<path fill="url(#gi)" d="M1774.525757,202.314407
C1759.987793,227.467133 1737.119507,237.626541 1710.430542,240.146072
C1656.889893,245.200485 1610.385498,227.117996 1568.551392,195.030457
C1549.328003,180.285843 1533.059570,162.770294 1521.359741,141.401428
C1512.435181,125.101349 1506.825195,107.857140 1508.206787,88.902664
C1509.905762,65.594429 1520.754761,47.899868 1540.791626,35.936844
C1560.395020,24.232685 1582.108398,20.599630 1604.263550,22.668142
C1659.849121,27.857908 1706.831177,51.752487 1745.801880,91.409737
C1762.385132,108.285278 1774.854736,127.838951 1780.270020,151.237411
C1784.290771,168.610458 1783.603149,185.589859 1774.525757,202.314407
z"/>
</svg>
